<?xml version="1.0" standalone="no"?><!DOCTYPE svg PUBLIC "-//W3C//DTD SVG 1.1//EN" "http://www.w3.org/Graphics/SVG/1.1/DTD/svg11.dtd"><svg t="1604738875486" class="icon" viewBox="0 0 1024 1024" version="1.1" xmlns="http://www.w3.org/2000/svg" p-id="2292" xmlns:xlink="http://www.w3.org/1999/xlink" width="200" height="200"><defs><style type="text/css"></style></defs><path d="M731.328 960c-13.696 0-26.88-3.52-39.36-10.432L531.84 860.224a40.96 40.96 0 0 0-39.68 0l-160.128 89.344a82.112 82.112 0 0 1-104.192-21.824 91.648 91.648 0 0 1-18.368-72.704l30.592-189.312a46.912 46.912 0 0 0-12.352-40.064L98.176 491.584A93.12 93.12 0 0 1 76.8 399.616c9.792-32.576 36.288-56.256 68.16-61.056l179.072-27.52a42.88 42.88 0 0 0 32-24.832L436.16 113.92C450.56 83.136 479.552 64 512 64c32.384 0 61.44 19.2 75.776 49.92l80.064 172.288a42.944 42.944 0 0 0 32 24.768l179.2 27.584c31.872 4.8 58.304 28.544 68.16 61.056a93.248 93.248 0 0 1-21.376 91.968l-129.536 134.08a46.72 46.72 0 0 0-12.288 40.064l30.592 189.312c4.288 26.56-2.24 52.352-18.432 72.704-16.064 20.416-39.808 32.192-64.832 32.256zM512 810.56c13.696 0 27.328 3.584 39.232 10.24l160.192 89.472c17.92 9.792 39.68 5.12 52.672-11.2a46.272 46.272 0 0 0 9.152-36.48l-30.592-189.44a93.12 93.12 0 0 1 24.32-79.36l129.472-134.016a46.272 46.272 0 0 0 10.88-46.464 42.688 42.688 0 0 0-34.368-30.72l-179.072-27.648a84.992 84.992 0 0 1-63.616-49.024l-80-172.288a41.6 41.6 0 0 0-76.544 0L393.6 305.856a85.12 85.12 0 0 1-63.616 49.088l-179.008 27.648a42.432 42.432 0 0 0-34.368 30.72 46.144 46.144 0 0 0 10.752 46.4l129.536 134.144c19.904 20.608 28.992 50.304 24.32 79.36l-30.656 189.312a46.08 46.08 0 0 0 9.216 36.544 41.472 41.472 0 0 0 52.672 11.2l160.128-89.408c12.16-6.72 25.728-10.304 39.424-10.304z" p-id="2293"></path></svg>