<?xml version="1.0" standalone="no"?><!DOCTYPE svg PUBLIC "-//W3C//DTD SVG 1.1//EN" "http://www.w3.org/Graphics/SVG/1.1/DTD/svg11.dtd"><svg t="1604738821373" class="icon" viewBox="0 0 1024 1024" version="1.1" xmlns="http://www.w3.org/2000/svg" p-id="2027" xmlns:xlink="http://www.w3.org/1999/xlink" width="200" height="200"><defs><style type="text/css"></style></defs><path d="M848 384h-33.6C806.4 224 675.2 96 512 96s-294.4 128-302.4 288H176c-52.8 0-96 43.2-96 96v64c0 52.8 43.2 96 96 96h32c35.2 0 64-28.8 64-64V400c0-132.8 107.2-240 240-240s240 107.2 240 240v224c0 97.6-67.2 179.2-156.8 201.6-11.2-16-30.4-25.6-51.2-25.6h-64c-35.2 0-64 28.8-64 64s28.8 64 64 64h64c25.6 0 49.6-16 59.2-38.4C720 864 808 763.2 816 640h32c52.8 0 96-43.2 96-96v-64c0-52.8-43.2-96-96-96zM176 576c-17.6 0-32-14.4-32-32v-64c0-17.6 14.4-32 32-32h32v128h-32z m704-32c0 17.6-14.4 32-32 32h-32v-128h32c17.6 0 32 14.4 32 32v64z" fill="#4A576A" p-id="2028"></path></svg>