<?xml version="1.0" standalone="no"?><!DOCTYPE svg PUBLIC "-//W3C//DTD SVG 1.1//EN" "http://www.w3.org/Graphics/SVG/1.1/DTD/svg11.dtd"><svg t="1604738858644" class="icon" viewBox="0 0 1121 1024" version="1.1" xmlns="http://www.w3.org/2000/svg" p-id="2159" xmlns:xlink="http://www.w3.org/1999/xlink" width="218.9453125" height="200"><defs><style type="text/css"></style></defs><path d="M974.85714248 454.18571387V790.57142862c0 89.52857138-69.25714277 162.85714278-155.7 162.85714276H333.41428584C246.97142862 953.42857138 177.71428584 880.1 177.71428584 790.57142862V462.15714307a275.10000029 275.10000029 0 0 1-26.65714307-15.94285752 119.99999971 119.99999971 0 0 1-32.82857139-166.11428584l116.78571475-175.15714219A77.14285752 77.14285752 0 0 1 299.21428584 70.57142862h540a77.14285752 77.14285752 0 0 1 64.15714248 34.3714289l116.78571475 175.15714219a119.99999971 119.99999971 0 0 1-32.82857139 166.11428584 297.42857138 297.42857138 0 0 1-12.4714292 7.97142832z m-728.57142862 28.32857227V790.57142862c0 52.49999971 39.42857109 94.28571386 87.12857198 94.28571386h485.74285664c47.65714277 0 87.12857109-41.78571416 87.12857197-94.28571386V480.97142862c-7.28571445 1.19999971-14.48571445 1.75714278-21.64285723 1.75714276-63.64285752 0-115.49999971-21.04285693-150.98571474-62.31428525-41.10000029 39.77142891-96.08571386 62.31428614-158.65714248 62.31428525-68.14285752 0-128.91428614-21.77142891-170.78571387-61.71428583-35.48571416 40.88571416-87.12857109 61.71428584-150.42857168 61.71428583-2.48571387 0-5.01428584-0.04285723-7.50000059-0.21428524z m153.77142921-154.02857169a34.28571445 34.28571445 0 0 1 30.85714248 16.97142833c25.11428555 42.98571386 78.17142833 68.69999971 144.08571445 68.6999997 57.12857138 0 103.71428614-25.54285693 133.11428555-69.72857139a34.28571445 34.28571445 0 0 1 60.3 4.28571475c20.87142891 43.97142832 58.92857138 65.44285752 116.22857167 65.44285664 17.74285752 0 39.25714307-7.88571386 64.41428585-24.85714219a51.42857168 51.42857168 0 0 0 14.05714306-71.14285722l-116.78571475-175.20000029a8.57142862 8.57142862 0 0 0-7.11428554-3.81428526h-540a8.57142862 8.57142862 0 0 0-7.11428555 3.85714248L175.31428555 318.11428584a51.42857168 51.42857168 0 0 0 14.05714307 71.14285723c25.15714277 16.97142833 46.71428555 24.85714307 64.41428583 24.85714306 57.55714278 0 95.65714248-21.64285723 116.52857139-66.00000058a34.28571445 34.28571445 0 0 1 29.22857139-19.67142833h0.51428584z" p-id="2160"></path><path d="M447.71428584 760.57142891h257.14285664a34.28571445 34.28571445 0 1 0 0-68.57142891H447.71428584a34.28571445 34.28571445 0 1 0 0 68.57142891z" p-id="2161"></path></svg>